<svg width="15" height="14" viewBox="0 0 15 14" fill="none" xmlns="http://www.w3.org/2000/svg">
<path fill-rule="evenodd" clip-rule="evenodd" d="M9.90385 1.20169C9.28202 1.17252 9.08427 1.16669 7.49935 1.16669C5.91443 1.16669 5.71668 1.17427 5.09485 1.20169C4.47302 1.23085 4.05068 1.32827 3.67852 1.47294C3.2891 1.6192 2.93632 1.84874 2.64485 2.14552C2.34782 2.43679 2.11824 2.78963 1.97227 3.17919C1.8276 3.55135 1.73018 3.97369 1.70102 4.59552C1.67185 5.21735 1.66602 5.4151 1.66602 7.00002C1.66602 8.58494 1.6736 8.78269 1.70102 9.40452C1.73018 10.0258 1.8276 10.4493 1.97227 10.8209C2.11864 11.2102 2.34817 11.563 2.64485 11.8545C2.93624 12.1514 3.28904 12.381 3.67852 12.5271C4.05068 12.6712 4.4736 12.7692 5.09485 12.7984C5.71668 12.8275 5.91443 12.8334 7.49935 12.8334C9.08427 12.8334 9.28202 12.8258 9.90385 12.7984C10.5251 12.7692 10.9486 12.6712 11.3202 12.5271C11.7094 12.3805 12.0622 12.151 12.3538 11.8545C12.6508 11.5632 12.8804 11.2104 13.0264 10.8209C13.1705 10.4487 13.2685 10.0258 13.2977 9.40452C13.3268 8.78269 13.3327 8.58494 13.3327 7.00002C13.3327 5.4151 13.3251 5.21735 13.2977 4.59552C13.2685 3.97427 13.1705 3.55077 13.0264 3.17919C12.88 2.78986 12.6505 2.43713 12.3538 2.14552C12.0295 1.82177 11.7052 1.6211 11.3202 1.47294C10.948 1.32827 10.5251 1.23085 9.90385 1.20169ZM4.58268 7.00002C4.58268 5.38919 5.88852 4.08335 7.49935 4.08335C9.11018 4.08335 10.416 5.38919 10.416 7.00002C10.416 8.61085 9.11018 9.91669 7.49935 9.91669C5.88852 9.91669 4.58268 8.61085 4.58268 7.00002ZM11.291 3.93752C11.291 3.53481 10.9646 3.20835 10.5618 3.20835C10.1591 3.20835 9.83268 3.53481 9.83268 3.93752C9.83268 4.34023 10.1591 4.66669 10.5618 4.66669C10.9646 4.66669 11.291 4.34023 11.291 3.93752ZM9.24935 7.00002C9.24935 6.03352 8.46585 5.25002 7.49935 5.25002C6.53285 5.25002 5.74935 6.03352 5.74935 7.00002C5.74935 7.96652 6.53285 8.75002 7.49935 8.75002C8.46585 8.75002 9.24935 7.96652 9.24935 7.00002Z" fill="white"/>
</svg>
