<svg width="7" height="12" viewBox="0 0 7 12" fill="none" xmlns="http://www.w3.org/2000/svg">
<path d="M0.691577 6.3261H1.99357V11.6862C1.99357 11.792 2.07932 11.8778 2.18515 11.8778H4.39273C4.49856 11.8778 4.58431 11.792 4.58431 11.6862V6.35135H6.08106C6.17838 6.35135 6.26026 6.27832 6.27137 6.18165L6.4987 4.20833C6.50494 4.15404 6.48774 4.09967 6.45142 4.05894C6.41505 4.01817 6.36302 3.99484 6.30842 3.99484H4.58438V2.75787C4.58438 2.38498 4.78516 2.19589 5.18118 2.19589C5.23762 2.19589 6.30842 2.19589 6.30842 2.19589C6.41425 2.19589 6.5 2.11011 6.5 2.00432V0.192995C6.5 0.0871675 6.41425 0.00141767 6.30842 0.00141767H4.75493C4.74397 0.000881254 4.71964 0 4.68377 0C4.41422 0 3.4773 0.0529136 2.7372 0.733778C1.91717 1.48829 2.03116 2.39169 2.0584 2.54832V3.9948H0.691577C0.58575 3.9948 0.5 4.08055 0.5 4.18638V6.13449C0.5 6.24031 0.58575 6.3261 0.691577 6.3261Z" fill="white"/>
</svg>
