<svg width="14" height="8" viewBox="0 0 14 8" fill="none" xmlns="http://www.w3.org/2000/svg">
<path d="M13.2019 0.531842C13.0557 0.991652 12.8585 1.39189 12.6116 1.75529L12.6219 1.73905C12.3792 2.14343 12.0895 2.61065 11.7526 3.14068C11.4638 3.55915 11.3109 3.77579 11.2939 3.79059C11.2192 3.88429 11.1672 3.9991 11.1493 4.12529L11.1487 4.12908C11.1634 4.2439 11.2164 4.3441 11.2939 4.41884L11.5105 4.66038C12.6695 5.85152 13.3214 6.67257 13.4662 7.12354C13.4852 7.17336 13.496 7.23077 13.496 7.29089C13.496 7.39596 13.4624 7.4929 13.4056 7.57252L13.4066 7.57089C13.3113 7.66892 13.1781 7.72958 13.0308 7.72958C13.0145 7.72958 12.9977 7.72903 12.982 7.72741H12.9842H11.5593C11.5587 7.72741 11.5576 7.72741 11.5566 7.72741C11.374 7.72741 11.2062 7.6635 11.0745 7.55735L11.0762 7.55843C10.8845 7.40083 10.7139 7.23023 10.5611 7.04501L10.5562 7.03851C10.3068 6.75652 10.0854 6.51912 9.89226 6.32632C9.24885 5.71468 8.77405 5.40886 8.46788 5.40886C8.4565 5.40778 8.4435 5.40724 8.42996 5.40724C8.3406 5.40724 8.2572 5.43486 8.18842 5.48198L8.19004 5.48089C8.13371 5.5513 8.09959 5.64229 8.09959 5.74032C8.09959 5.75981 8.10068 5.77823 8.10339 5.79718V5.79502C8.08876 5.96508 8.0801 6.16276 8.0801 6.3626C8.0801 6.42705 8.08118 6.49096 8.08281 6.55487V6.54566V7.17336C8.08822 7.19882 8.09147 7.22806 8.09147 7.25785C8.09147 7.38892 8.0319 7.5059 7.93874 7.58335L7.9382 7.58389C7.72861 7.67975 7.48381 7.73608 7.22547 7.73608C7.17023 7.73608 7.11607 7.73337 7.06245 7.72849L7.06949 7.72903C6.21703 7.71279 5.4263 7.46311 4.75419 7.0423L4.77315 7.05313C3.9548 6.55595 3.27673 5.90875 2.76006 5.14402L2.74543 5.12128C2.25475 4.47029 1.79711 3.73481 1.40716 2.95925L1.36925 2.87584C1.14124 2.44149 0.90511 1.90748 0.701472 1.35831L0.668976 1.25811C0.586113 1.01115 0.525996 0.724106 0.501083 0.426773L0.5 0.413233C0.5 0.13955 0.661033 0.00270795 0.983099 0.00270795H2.40748C2.42048 0.00162477 2.43564 0.00108318 2.45135 0.00108318C2.58566 0.00108318 2.70969 0.0471184 2.80772 0.124566L2.80663 0.123483C2.91495 0.242091 2.99511 0.387779 3.03464 0.550256L3.03627 0.556755C3.2984 1.29711 3.57623 1.91885 3.89577 2.5146L3.85948 2.44041C4.12053 2.96575 4.4092 3.41798 4.73849 3.83554L4.72603 3.81875C5.01488 4.17331 5.24018 4.35059 5.40193 4.35059C5.40681 4.35114 5.41277 4.35114 5.41926 4.35114C5.49942 4.35114 5.56928 4.30781 5.6072 4.24282L5.60774 4.24173C5.64782 4.13883 5.6711 4.01914 5.6711 3.89458C5.6711 3.86804 5.67002 3.8415 5.66785 3.8155V3.81875V1.71792C5.65648 1.47042 5.59582 1.23916 5.49455 1.03173L5.49888 1.04202C5.43172 0.89904 5.35102 0.775557 5.25516 0.665614L5.25679 0.667781C5.16797 0.57896 5.10731 0.462518 5.08835 0.332536L5.08781 0.329287C5.08781 0.237217 5.13006 0.154353 5.19613 0.100194L5.19667 0.0996526C5.2622 0.0395361 5.34994 0.00324954 5.4458 0.00324954H5.45014H7.69557C7.70748 0.00162477 7.72102 0.00108318 7.7351 0.00108318C7.84071 0.00108318 7.93549 0.0487431 7.99832 0.123483L7.99886 0.124024C8.05464 0.225843 8.08768 0.347701 8.08768 0.476599C8.08768 0.49718 8.0866 0.517219 8.08497 0.537258V0.53455V3.3362C8.08389 3.34919 8.08335 3.36436 8.08335 3.37952C8.08335 3.47918 8.11097 3.57287 8.15863 3.65248L8.15754 3.65032C8.19708 3.70881 8.26315 3.74672 8.33789 3.74672H8.33844C8.43376 3.74022 8.52041 3.70881 8.59352 3.65898L8.5919 3.66007C8.73921 3.55879 8.86594 3.44343 8.97589 3.31291L8.97805 3.3102C9.3068 2.93867 9.61009 2.52814 9.87439 2.09162L9.89551 2.05371C10.0818 1.745 10.2833 1.36481 10.4658 0.974321L10.4994 0.894707L10.7409 0.411609C10.8249 0.170059 11.0502 0 11.315 0C11.3253 0 11.3356 0 11.3459 0.00054159H11.3443H12.7692C13.1541 0.00054159 13.2985 0.177642 13.2025 0.531842H13.2019Z" fill="white"/>
</svg>
