<svg width="24" height="23" viewBox="0 0 24 23" fill="none" xmlns="http://www.w3.org/2000/svg">
<path fill-rule="evenodd" clip-rule="evenodd" d="M21.7935 14.8249L20.2867 15.4377C20.8011 14.4353 21.2327 13.4582 21.5733 12.5201C21.8822 11.67 22.1098 10.8663 22.2561 10.1139C22.465 11.6595 22.3273 13.2688 21.7935 14.8249V14.8249ZM16.6197 20.7339L14.0154 19.6352C14.1453 19.4533 14.276 19.2646 14.407 19.0703L21.1402 16.332C20.1138 18.2651 18.5217 19.789 16.6197 20.7339V20.7339ZM12.8539 21.7727C12.9722 21.5065 13.1047 21.1677 13.2645 20.7406C13.2832 20.6912 13.3016 20.6403 13.3203 20.5898L15.0771 21.331C14.3516 21.5604 13.6085 21.7087 12.8539 21.7727V21.7727ZM12.5986 18.5646L12.5769 18.5732L12.0277 18.7967L12 18.8079L11.9723 18.7967L11.4231 18.5732L11.4014 18.5646L11.1697 18.4703C10.9773 17.8717 10.7759 17.208 10.5749 16.4945C10.8452 16.4589 11.1293 16.4342 11.4273 16.4204C11.4344 16.42 11.4415 16.4193 11.449 16.4193C11.6275 16.411 11.8117 16.4069 12 16.4065C12.1883 16.4069 12.3721 16.411 12.551 16.4193C12.5585 16.4193 12.5653 16.42 12.5727 16.4204C12.8703 16.4342 13.1548 16.4589 13.4251 16.4945C13.2241 17.208 13.0227 17.8717 12.8303 18.4703L12.5986 18.5646ZM8.92293 21.331L10.6797 20.5898C10.6984 20.6403 10.7168 20.6912 10.7355 20.7406C10.8953 21.1677 11.0275 21.5065 11.1461 21.7727C10.3915 21.7087 9.6484 21.5604 8.92293 21.331V21.331ZM2.85977 16.332L9.593 19.0703C9.72402 19.2646 9.85466 19.4533 9.98456 19.6352L7.37991 20.7339C5.47789 19.789 3.88621 18.2651 2.85977 16.332V16.332ZM1.74349 10.1139C1.89023 10.8663 2.11783 11.67 2.42666 12.5201C2.76731 13.4582 3.19892 14.4353 3.71326 15.4377L2.20655 14.8249C1.67274 13.2688 1.53461 11.6595 1.74349 10.1139V10.1139ZM2.8841 6.79874C2.96309 6.53072 3.06603 6.28515 3.1933 6.05942L3.19218 6.0583C4.28001 4.28955 5.90801 2.8315 7.96276 1.96453C8.251 1.84324 8.54298 1.73581 8.83721 1.6411C8.76159 1.75453 8.68972 1.87357 8.62197 1.99822C8.31164 2.56984 8.08404 3.26835 7.9388 4.08553C7.57195 4.27944 7.2444 4.50667 6.95766 4.76833C5.9724 5.66712 5.47303 6.94174 5.47303 8.55701C5.47303 9.79532 5.76913 11.238 6.3531 12.8462C6.83038 14.1594 7.48435 15.55 8.29741 16.9793C8.3779 17.1204 8.4595 17.2615 8.54186 17.4015L5.38992 16.1198C5.17131 15.7361 4.95232 15.334 4.73745 14.9152C2.99902 11.5263 2.34093 8.64386 2.8841 6.79874V6.79874ZM9.1831 15.754C9.1569 15.8589 9.13294 15.967 9.11048 16.0782C8.96074 15.8068 8.81138 15.5283 8.66389 15.2408C6.92584 11.8519 6.26775 8.96953 6.81091 7.12442C6.99621 6.49553 7.3129 5.98605 7.77222 5.58177C7.75649 5.87188 7.74788 6.17172 7.74788 6.48317C7.74788 9.64035 8.54897 13.3287 9.1831 15.754V15.754ZM8.98545 4.88999C8.98695 4.88961 8.98844 4.88887 8.98957 4.88849C9.65851 4.62571 10.4734 4.47035 11.4273 4.42581C11.4344 4.42543 11.4415 4.42469 11.449 4.42431C11.6275 4.41645 11.8117 4.41233 12 4.41196C12.1883 4.41233 12.3721 4.41645 12.551 4.42431C12.5585 4.42469 12.5653 4.42543 12.5727 4.42581C13.5266 4.47035 14.3415 4.62571 15.0104 4.88849C15.0116 4.88887 15.0131 4.88961 15.0146 4.88999C15.256 7.01698 14.9737 9.98399 14.1715 13.5496C14.0304 14.177 13.8818 14.7856 13.7294 15.37C13.3652 15.3179 12.9808 15.2839 12.5769 15.2678C12.3964 15.2607 12.2123 15.2566 12.0236 15.2566C12.0157 15.2566 12.0079 15.2569 12 15.2569C11.9921 15.2569 11.9843 15.2566 11.9764 15.2566C11.7878 15.2566 11.6036 15.2607 11.4231 15.2678C11.0192 15.2839 10.6348 15.3179 10.2706 15.37C10.1182 14.7856 9.96959 14.177 9.82846 13.5496C9.02588 9.98399 8.744 7.01698 8.98545 4.88999V4.88999ZM9.58851 2.63834C10.0051 1.81854 10.6101 1.34425 11.4273 1.19863C11.6032 1.16756 11.7892 1.15147 11.9858 1.15034C11.9903 1.15034 11.9951 1.15034 12 1.15034C12.0049 1.15034 12.0097 1.15034 12.0142 1.15034C12.2104 1.15147 12.3968 1.16756 12.5727 1.19863C13.3899 1.34425 13.9949 1.81854 14.4115 2.63834C14.5522 2.91498 14.6705 3.23242 14.7679 3.58579C14.1176 3.40985 13.3866 3.30541 12.5769 3.27322C12.3964 3.26611 12.2123 3.26199 12.0236 3.26199C12.0157 3.26199 12.0079 3.26236 12 3.26236C11.9921 3.26236 11.9843 3.26199 11.9764 3.26199C11.7877 3.26199 11.6036 3.26611 11.4231 3.27322C10.6134 3.30541 9.88199 3.40985 9.23214 3.58579C9.32947 3.23242 9.44776 2.91498 9.58851 2.63834V2.63834ZM16.2278 5.58177C16.6871 5.98605 17.0038 6.49553 17.1891 7.12442C17.7323 8.96953 17.0742 11.8519 15.3361 15.2408C15.1886 15.5283 15.0393 15.8068 14.8895 16.0782C14.8671 15.967 14.8427 15.8589 14.8169 15.754C15.451 13.3287 16.2521 9.64035 16.2521 6.48317C16.2521 6.17172 16.2435 5.87188 16.2278 5.58177V5.58177ZM16.0372 1.96453C18.0916 2.8315 19.72 4.28955 20.8078 6.0583L20.8063 6.05942C20.934 6.28515 21.0369 6.53072 21.1155 6.79874C21.6591 8.64386 21.0006 11.5263 19.2625 14.9152C19.0477 15.334 18.8287 15.7361 18.6101 16.1198L15.4581 17.4015C15.5405 17.2615 15.6221 17.1204 15.7026 16.9793C16.5156 15.55 17.1696 14.1594 17.6469 12.8462C18.2309 11.238 18.527 9.79532 18.527 8.55701C18.527 6.94174 18.0272 5.66712 17.0423 4.76833C16.7556 4.50667 16.4281 4.27944 16.0612 4.08553C15.9156 3.26835 15.6884 2.56984 15.378 1.99822C15.3103 1.87357 15.2384 1.75453 15.1628 1.6411C15.457 1.73581 15.749 1.84324 16.0372 1.96453V1.96453ZM21.7519 5.39984C21.7309 5.36465 21.71 5.32946 21.6879 5.2954L21.6871 5.29615C20.4791 3.40199 18.7059 1.8425 16.4842 0.905151C15.0602 0.304712 13.5614 0.000374339 12.0285 0.000374339C12.024 0.000374339 12.0195 0.000374339 12.015 0.000374339C12.0105 0.000374339 12.0064 0 12.0019 0C12.0015 0 12.0007 0.000374339 12 0.000374339C11.9993 0.000374339 11.9985 0 11.9978 0C11.9936 0 11.9895 0.000374339 11.985 0.000374339C11.9805 0.000374339 11.976 0.000374339 11.9715 0.000374339C10.4386 0.000374339 8.93978 0.304712 7.5158 0.905151C5.29409 1.8425 3.52085 3.40199 2.31286 5.29615L2.31211 5.2954C2.29002 5.32946 2.26906 5.36465 2.2481 5.39984C0.634699 7.98914 0.0683238 11.1864 0.843205 14.2705C0.963742 14.7501 1.11685 15.2274 1.30364 15.699C1.33546 15.7799 1.36803 15.8604 1.40172 15.9408C2.36527 18.2251 4.00487 20.0762 6.03042 21.3029C6.45642 21.5608 6.89926 21.791 7.35633 21.9917C8.78443 22.619 10.3533 22.9604 11.9809 22.9604C11.9873 22.9604 11.9936 22.9601 12 22.9601C12.0064 22.9601 12.0127 22.9604 12.0191 22.9604C13.6467 22.9604 15.2152 22.619 16.6437 21.9917C17.1007 21.791 17.5436 21.5608 17.9696 21.3029C19.9951 20.0762 21.6344 18.2251 22.5979 15.9408C22.632 15.8604 22.6645 15.7799 22.6964 15.699C22.8832 15.2274 23.0363 14.7501 23.1568 14.2705C23.9317 11.1864 23.3653 7.98914 21.7519 5.39984V5.39984Z" fill="white"/>
</svg>
