<svg width="61" height="61" viewBox="0 0 61 61" fill="none" xmlns="http://www.w3.org/2000/svg">
<path id="Combined Shape" fill-rule="evenodd" clip-rule="evenodd" d="M30.5 61C13.6827 61 0 47.318 0 30.5C0 13.682 13.6827 0 30.5 0C47.318 0 61 13.682 61 30.5C61 47.318 47.318 61 30.5 61ZM16.7715 28.9353V25.6774H10.2467V8.59197C9.05691 9.66374 7.95512 10.8291 6.95059 12.0742V28.9353H16.7715ZM21.5938 9.57251C21.1978 9.95486 21 10.5475 21 11.3543V23.6457C21 24.4525 21.1978 25.0465 21.5938 25.4275C21.9898 25.8098 22.4589 26 23.0003 26C23.5412 26 24.0091 25.8098 24.4063 25.4275C24.8017 25.0465 25 24.4525 25 23.6457V11.3543C25 10.5475 24.8017 9.95486 24.4063 9.57251C24.0091 9.19151 23.5412 9 23.0003 9C22.4589 9 21.9898 9.19151 21.5938 9.57251ZM23.5004 29C22.835 29 22.1755 28.8829 21.5227 28.6499C20.8678 28.417 20.2788 28.0734 19.7531 27.6185C19.2274 27.1624 18.8044 26.5904 18.4829 25.9026C18.1608 25.2142 18 24.4047 18 23.4716V11.5271C18 10.6174 18.1608 9.81186 18.4829 9.11365C18.8044 8.41348 19.2274 7.83761 19.7531 7.38146C20.2788 6.92596 20.8678 6.58173 21.5227 6.34878C22.1755 6.11648 22.835 6 23.5004 6C24.1638 6 24.8239 6.11648 25.4781 6.34878C26.1323 6.58173 26.7213 6.92596 27.247 7.38146C27.772 7.83761 28.1957 8.41348 28.5171 9.11365C28.8393 9.81186 29 10.6174 29 11.5271V23.4716C29 24.4047 28.8393 25.2142 28.5171 25.9026C28.1957 26.5904 27.772 27.1624 27.247 27.6185C26.7213 28.0734 26.1323 28.417 25.4781 28.6499C24.8239 28.8829 24.1638 29 23.5004 29ZM39.7825 15.6234H34.0968V8.81283H40.6222V5.786H30.8013V28.2338H34.0968V18.6502H39.7825V15.6234ZM45.1377 8.81275H41.3237V5.786H47.3975C48.7293 6.69719 49.9823 7.70976 51.1446 8.81275H48.4341V28.2338H45.1377V8.81275ZM14.2211 42.7917V52.786H17.473V30.3382H14.2211V39.9547H10.2038V30.3382H6.95059V48.7588C7.94203 49.9878 9.02947 51.1379 10.2038 52.1957V42.7917H14.2211ZM25.4711 37L24 45H27L25.5302 37H25.4711ZM19 53L24.1284 31H26.871L32 53H28.7091L27.7412 48.2733H23.2583L22.2903 53H19ZM37.6038 30.3382H34.3088V52.786H44.1297V49.5706H37.6038V30.3382ZM44.8312 30.3382H48.0542V49.5706H52.5476C51.5581 50.7227 50.4811 51.7979 49.3272 52.786H44.8312V30.3382Z" fill="#FEFEFE"/>
</svg>
